<!-- Generated by IcoMoon.io -->
<svg version="1.1" xmlns="http://www.w3.org/2000/svg" width="384" height="448" viewBox="0 0 384 448">
<title></title>
<g id="icomoon-ignore">
</g>
<path fill="#000" d="M246.268 243.506c4.251 0 45.015 21.257 46.765 24.258 0.5 1.25 0.5 2.751 0.5 3.751 0 6.252-2 13.255-4.251 19.006-5.752 14.004-29.010 23.007-43.264 23.007-12.004 0-36.762-10.504-47.516-15.505-35.762-16.255-58.019-44.014-79.526-75.775-9.503-14.004-18.006-31.26-17.755-48.516v-2c0.5-16.505 6.502-28.259 18.506-39.513 3.751-3.501 7.753-5.502 13.004-5.502 3.001 0 6.002 0.75 9.253 0.75 6.752 0 8.003 2 10.503 8.503 1.75 4.251 14.505 38.263 14.505 40.763 0 9.503-17.256 20.257-17.256 26.008 0 1.25 0.5 2.501 1.25 3.751 5.502 11.754 16.005 25.258 25.508 34.262 11.504 11.004 23.758 18.256 37.762 25.258 1.75 1.001 3.501 1.75 5.502 1.75 7.503 0 20.006-24.258 26.509-24.258zM195.501 376.050c86.528 0 157.051-70.523 157.051-157.051s-70.523-157.051-157.051-157.051-157.051 70.523-157.051 157.051c0 33.011 10.503 65.271 30.009 92.030l-19.757 58.269 60.52-19.256c25.508 16.756 55.769 26.008 86.278 26.008zM195.501 30.436c104.034 0 188.562 84.528 188.562 188.562s-84.528 188.562-188.562 188.562c-31.76 0-63.27-8.003-91.28-23.508l-104.284 33.511 34.011-101.283c-17.755-29.26-27.009-63.021-27.009-97.282 0-104.034 84.528-188.562 188.562-188.562z"></path>
</svg>
